:FULLY-SPECIFIED
:FORCE-ALL-JOINTS-BE-3DOF
:DEGREES
951
root 1.39703 15.4032 32.7718 6.30124 -2.87044 4.88177
lfemur 4.45149 0.575012 2.14411
ltibia 5.84937 -0 0
lfoot -30.9846 -14.4403 -0.004471
ltoes -30.6241 0 0
rfemur -30.172 -10.4185 -8.78782
rtibia 47.6705 -0 0
rfoot -15.9625 -0.521636 -0.0244746
rtoes -43.8256 0 0
lowerback -3.27159 -0.876755 -0.466287
upperback -1.38275 -1.12146 -7.14598
thorax 0.270263 -0.588053 -7.22459
lowerneck -7.00118 0.596732 3.56533
upperneck 2.12516 0.326206 3.79436
head 1.85941 0.295246 0.601069
lclavicle 1.80731e-15 -5.41019e-14 6.30785e-32
lhumerus -58.8771 -43.872 111.787
lradius 55.6319 -0 0
lwrist 25.7213 0 0
lhand 41.1671 24.2799 -0.00296363
lfingers 7.12502 -0 0
lthumb 63.3498 33.9407 -0.010611
rclavicle 1.80731e-15 -5.41019e-14 6.30785e-32
rhumerus -3.01814 3.81899 -6.68526
rradius 40.7055 -0 0
rwrist -16.6446 0 0
rhand -17.9796 -38.325 0.0277821
rfingers 7.12502 -0 0
rthumb 8.28932 -68.1114 0.028317
952
root 1.39609 15.4014 32.7711 6.29197 -2.8757 4.86909
lfemur 4.47348 0.577271 2.16543
ltibia 5.83369 -0 0
lfoot -30.9951 -14.4102 -0.00480773
ltoes -30.6512 0 0
rfemur -30.1728 -10.4513 -8.77049
rtibia 47.6832 -0 0
rfoot -16.0057 -0.481606 -0.026318
rtoes -43.8053 0 0
lowerback -3.26304 -0.870585 -0.467141
upperback -1.37642 -1.11311 -7.13695
thorax 0.273081 -0.583683 -7.2141
lowerneck -7.00553 0.596916 3.58549
upperneck 2.1256 0.324367 3.79531
head 1.86037 0.294609 0.597906
lclavicle 1.80055e-15 -5.3442e-14 6.78289e-32
lhumerus -58.872 -43.8924 111.813
lradius 55.6321 -0 0
lwrist 25.7202 0 0
lhand 41.1414 24.288 -0.00318682
lfingers 7.12502 -0 0
lthumb 63.3284 33.9758 -0.0114101
rclavicle 1.80055e-15 -5.3442e-14 6.78289e-32
rhumerus -2.96978 3.62563 -6.62424
rradius 40.6083 -0 0
rwrist -16.588 0 0
rhand -18.0727 -38.3461 0.0298751
rfingers 7.12502 -0 0
rthumb 8.19946 -68.1337 0.0304503
953
root 1.39514 15.3997 32.7705 6.28271 -2.88096 4.85641
lfemur 4.49548 0.579522 2.18674
ltibia 5.818 -0 0
lfoot -31.0056 -14.3801 -0.00513893
ltoes -30.6783 0 0
rfemur -30.1736 -10.4842 -8.75317
rtibia 47.6959 -0 0
rfoot -16.0489 -0.441575 -0.0281313
rtoes -43.785 0 0
lowerback -3.2545 -0.864415 -0.467993
upperback -1.37009 -1.10477 -7.12793
thorax 0.2759 -0.579313 -7.20361
lowerneck -7.00987 0.597102 3.60565
upperneck 2.12603 0.322528 3.79627
head 1.86133 0.293973 0.594743
lclavicle 1.79379e-15 -5.2782e-14 7.25013e-32
lhumerus -58.867 -43.9129 111.839
lradius 55.6323 -0 0
lwrist 25.7192 0 0
lhand 41.1156 24.2961 -0.00340636
lfingers 7.12502 -0 0
lthumb 63.3069 34.0108 -0.0121962
rclavicle 1.79379e-15 -5.2782e-14 7.25013e-32
rhumerus -2.92163 3.43222 -6.56339
rradius 40.5111 -0 0
rwrist -16.5313 0 0
rhand -18.1658 -38.3671 0.031934
rfingers 7.12502 -0 0
rthumb 8.10959 -68.1559 0.0325488
954
root 1.39419 15.398 32.7698 6.27344 -2.88622 4.84373
lfemur 4.51748 0.581765 2.20805
ltibia 5.80231 -0 0
lfoot -31.0161 -14.35 -0.00546461
ltoes -30.7054 0 0
rfemur -30.1745 -10.517 -8.73584
rtibia 47.7085 -0 0
rfoot -16.0921 -0.401542 -0.0299144
rtoes -43.7646 0 0
lowerback -3.24596 -0.858244 -0.468845
upperback -1.36376 -1.09642 -7.1189
thorax 0.278719 -0.574943 -7.19312
lowerneck -7.01422 0.59729 3.62582
upperneck 2.12646 0.320689 3.79722
head 1.86229 0.293336 0.591581
lclavicle 1.78703e-15 -5.21221e-14 7.70959e-32
lhumerus -58.8619 -43.9333 111.865
lradius 55.6325 -0 0
lwrist 25.7181 0 0
lhand 41.0899 24.3043 -0.00362224
lfingers 7.12502 -0 0
lthumb 63.2855 34.0458 -0.0129691
rclavicle 1.78703e-15 -5.21221e-14 7.70959e-32
rhumerus -2.87369 3.23876 -6.50271
rradius 40.414 -0 0
rwrist -16.4746 0 0
rhand -18.2588 -38.3882 0.0339587
rfingers 7.12502 -0 0
rthumb 8.01973 -68.1781 0.0346124
955
root 1.39324 15.3963 32.7692 6.26417 -2.89149 4.83105
lfemur 4.53948 0.584 2.22937
ltibia 5.78662 -0 0
lfoot -31.0266 -14.3198 -0.00578478
ltoes -30.7325 0 0
rfemur -30.1753 -10.5498 -8.71851
rtibia 47.7212 -0 0
rfoot -16.1353 -0.361508 -0.0316672
rtoes -43.7443 0 0
lowerback -3.23742 -0.852074 -0.469696
upperback -1.35743 -1.08808 -7.10987
thorax 0.28154 -0.570574 -7.18263
lowerneck -7.01857 0.597479 3.64598
upperneck 2.12689 0.31885 3.79817
head 1.86325 0.292699 0.588418
lclavicle 1.78027e-15 -5.14622e-14 8.16127e-32
lhumerus -58.8569 -43.9538 111.891
lradius 55.6327 -0 0
lwrist 25.7171 0 0
lhand 41.0642 24.3124 -0.00383446
lfingers 7.12502 -0 0
lthumb 63.2641 34.0809 -0.013729
rclavicle 1.78027e-15 -5.14622e-14 8.16127e-32
rhumerus -2.82597 3.04526 -6.44221
rradius 40.3168 -0 0
rwrist -16.4179 0 0
rhand -18.3519 -38.4093 0.0359491
rfingers 7.12502 -0 0
rthumb 7.92987 -68.2004 0.0366411
956
root 1.39229 15.3946 32.7685 6.25491 -2.89675 4.81838
lfemur 4.56149 0.586227 2.25069
ltibia 5.77093 -0 0
lfoot -31.0371 -14.2897 -0.00609943
ltoes -30.7596 0 0
rfemur -30.1762 -10.5826 -8.70118
rtibia 47.7339 -0 0
rfoot -16.1785 -0.321472 -0.0333899
rtoes -43.724 0 0
lowerback -3.22887 -0.845903 -0.470546
upperback -1.3511 -1.07974 -7.10084
thorax 0.284361 -0.566206 -7.17215
lowerneck -7.02291 0.597669 3.66614
upperneck 2.12732 0.317011 3.79913
head 1.86421 0.292062 0.585255
lclavicle 1.77351e-15 -5.08023e-14 8.60515e-32
lhumerus -58.8519 -43.9742 111.917
lradius 55.633 -0 0
lwrist 25.716 0 0
lhand 41.0385 24.3206 -0.00404302
lfingers 7.12502 -0 0
lthumb 63.2427 34.1159 -0.0144758
rclavicle 1.77351e-15 -5.08023e-14 8.60515e-32
rhumerus -2.77846 2.8517 -6.38188
rradius 40.2196 -0 0
rwrist -16.3612 0 0
rhand -18.445 -38.4303 0.0379054
rfingers 7.12502 -0 0
rthumb 7.84 -68.2226 0.038635
957
root 1.39135 15.3928 32.7679 6.24565 -2.90202 4.8057
lfemur 4.58349 0.588445 2.272
ltibia 5.75524 -0 0
lfoot -31.0476 -14.2596 -0.00640856
ltoes -30.7867 0 0
rfemur -30.177 -10.6154 -8.68384
rtibia 47.7466 -0 0
rfoot -16.2217 -0.281436 -0.0350824
rtoes -43.7036 0 0
lowerback -3.22033 -0.839732 -0.471395
upperback -1.34476 -1.0714 -7.09181
thorax 0.287183 -0.561838 -7.16166
lowerneck -7.02726 0.597862 3.68631
upperneck 2.12775 0.315172 3.80008
head 1.86516 0.291426 0.582092
lclavicle 1.76675e-15 -5.01424e-14 9.04125e-32
lhumerus -58.8469 -43.9947 111.943
lradius 55.6332 -0 0
lwrist 25.715 0 0
lhand 41.0127 24.3287 -0.00424792
lfingers 7.12502 -0 0
lthumb 63.2213 34.1509 -0.0152095
rclavicle 1.76675e-15 -5.01424e-14 9.04125e-32
rhumerus -2.73116 2.65809 -6.32172
rradius 40.1224 -0 0
rwrist -16.3045 0 0
rhand -18.538 -38.4514 0.0398274
rfingers 7.12502 -0 0
rthumb 7.75014 -68.2448 0.0405939
958
root 1.3904 15.3911 32.7672 6.23639 -2.90729 4.79302
lfemur 4.60549 0.590655 2.29332
ltibia 5.73956 -0 0
lfoot -31.0581 -14.2295 -0.00671217
ltoes -30.8138 0 0
rfemur -30.1779 -10.6483 -8.66651
rtibia 47.7593 -0 0
rfoot -16.2649 -0.241398 -0.0367448
rtoes -43.6833 0 0
lowerback -3.21179 -0.833561 -0.472243
upperback -1.33843 -1.06306 -7.08278
thorax 0.290005 -0.55747 -7.15117
lowerneck -7.0316 0.598055 3.70647
upperneck 2.12818 0.313332 3.80104
head 1.86612 0.290789 0.578929
lclavicle 1.75998e-15 -4.94825e-14 9.46956e-32
lhumerus -58.842 -44.0151 111.969
lradius 55.6334 -0 0
lwrist 25.7139 0 0
lhand 40.987 24.3369 -0.00444917
lfingers 7.12502 -0 0
lthumb 63.1999 34.186 -0.0159301
rclavicle 1.75998e-15 -4.94825e-14 9.46956e-32
rhumerus -2.68407 2.46443 -6.26173
rradius 40.0253 -0 0
rwrist -16.2478 0 0
rhand -18.6311 -38.4725 0.0417152
rfingers 7.12502 -0 0
rthumb 7.66027 -68.2671 0.042518
959
root 1.38945 15.3894 32.7666 6.22712 -2.91257 4.78035
lfemur 4.6275 0.592857 2.31464
ltibia 5.72387 -0 0
lfoot -31.0686 -14.1993 -0.00701026
ltoes -30.8409 0 0
rfemur -30.1788 -10.6811 -8.64917
rtibia 47.772 -0 0
rfoot -16.3081 -0.201359 -0.0383769
rtoes -43.663 0 0
lowerback -3.20325 -0.82739 -0.47309
upperback -1.33209 -1.05472 -7.07375
thorax 0.292829 -0.553104 -7.14068
lowerneck -7.03595 0.59825 3.72663
upperneck 2.12861 0.311493 3.80199
head 1.86708 0.290153 0.575766
lclavicle 1.75322e-15 -4.88226e-14 9.89009e-32
lhumerus -58.837 -44.0356 111.995
lradius 55.6336 -0 0
lwrist 25.7129 0 0
lhand 40.9613 24.345 -0.00464675
lfingers 7.12502 -0 0
lthumb 63.1784 34.221 -0.0166376
rclavicle 1.75322e-15 -4.88226e-14 9.89009e-32
rhumerus -2.6372 2.27072 -6.20191
rradius 39.9281 -0 0
rwrist -16.1911 0 0
rhand -18.7242 -38.4935 0.0435688
rfingers 7.12502 -0 0
rthumb 7.5704 -68.2893 0.0444072
960
root 1.3885 15.3877 32.7659 6.21786 -2.91784 4.76767
lfemur 4.6495 0.595051 2.33596
ltibia 5.70818 -0 0
lfoot -31.0791 -14.1692 -0.00730283
ltoes -30.868 0 0
rfemur -30.1797 -10.7139 -8.63183
rtibia 47.7847 -0 0
rfoot -16.3513 -0.161318 -0.0399788
rtoes -43.6426 0 0
lowerback -3.1947 -0.821219 -0.473936
upperback -1.32575 -1.04638 -7.06471
thorax 0.295653 -0.548737 -7.13019
lowerneck -7.04029 0.598447 3.74679
upperneck 2.12904 0.309654 3.80295
head 1.86804 0.289516 0.572603
lclavicle 1.74646e-15 -4.81627e-14 1.03028e-31
lhumerus -58.832 -44.056 112.021
lradius 55.6338 -0 0
lwrist 25.7118 0 0
lhand 40.9356 24.3532 -0.00484068
lfingers 7.12502 -0 0
lthumb 63.157 34.256 -0.017332
rclavicle 1.74646e-15 -4.81627e-14 1.03028e-31
rhumerus -2.59053 2.07697 -6.14226
rradius 39.8309 -0 0
rwrist -16.1344 0 0
rhand -18.8172 -38.5146 0.0453881
rfingers 7.12502 -0 0
rthumb 7.48053 -68.3116 0.0462615
961
root 1.38755 15.386 32.7653 6.20861 -2.92312 4.755
lfemur 4.67151 0.597236 2.35728
ltibia 5.69249 -0 0
lfoot -31.0896 -14.1391 -0.00758989
ltoes -30.8951 0 0
rfemur -30.1806 -10.7467 -8.61448
rtibia 47.7974 -0 0
rfoot -16.3945 -0.121277 -0.0415505
rtoes -43.6223 0 0
lowerback -3.18616 -0.815047 -0.474781
upperback -1.31941 -1.03804 -7.05568
thorax 0.298478 -0.544371 -7.1197
lowerneck -7.04464 0.598645 3.76696
upperneck 2.12947 0.307815 3.8039
head 1.869 0.28888 0.56944
lclavicle 1.7397e-15 -4.75028e-14 1.07078e-31
lhumerus -58.8271 -44.0765 112.047
lradius 55.6341 -0 0
lwrist 25.7108 0 0
lhand 40.9098 24.3613 -0.00503095
lfingers 7.12502 -0 0
lthumb 63.1356 34.2911 -0.0180133
rclavicle 1.7397e-15 -4.75028e-14 1.07078e-31
rhumerus -2.54407 1.88316 -6.08276
rradius 39.7337 -0 0
rwrist -16.0777 0 0
rhand -18.9103 -38.5357 0.0471732
rfingers 7.12502 -0 0
rthumb 7.39067 -68.3338 0.0480808
962
root 1.38661 15.3842 32.7646 6.19935 -2.9284 4.74232
lfemur 4.69352 0.599414 2.3786
ltibia 5.6768 -0 0
lfoot -31.1001 -14.109 -0.00787143
ltoes -30.9222 0 0
rfemur -30.1815 -10.7796 -8.59713
rtibia 47.8101 -0 0
rfoot -16.4377 -0.0812338 -0.0430921
rtoes -43.602 0 0
lowerback -3.17762 -0.808876 -0.475626
upperback -1.31307 -1.02971 -7.04664
thorax 0.301304 -0.540006 -7.10921
lowerneck -7.04898 0.598845 3.78712
upperneck 2.1299 0.305976 3.80486
head 1.86996 0.288244 0.566278
lclavicle 1.73294e-15 -4.68428e-14 1.11049e-31
lhumerus -58.8221 -44.0969 112.073
lradius 55.6343 -0 0
lwrist 25.7097 0 0
lhand 40.8841 24.3695 -0.00521757
lfingers 7.12502 -0 0
lthumb 63.1142 34.3261 -0.0186815
rclavicle 1.73294e-15 -4.68428e-14 1.11049e-31
rhumerus -2.49781 1.68931 -6.02344
rradius 39.6366 -0 0
rwrist -16.021 0 0
rhand -19.0034 -38.5568 0.0489241
rfingers 7.12502 -0 0
rthumb 7.3008 -68.3561 0.0498653
